# xmcd CD database file
#
# Track frame offsets:
#	150
#	12737
#	29887
#	41348
#	52469
#	65054
#	76777
#	87752
#	100890
#	111656
#	124117
#	137250
#	148105
#	159805
#	169036
#	179694
#	191743
#	202160
#	212279
#	222966
#
# Disc length: 3095 seconds
#
# Revision: 2
# Processed by: cddbd v1.5.2PL0 Copyright (c) Steve Scherf et al.
# Submitted via: CDex 1.50
#
DISCID=2f0c1514
DTITLE=The Louvin Brothers - The Absolutely Essential 3 Cd Collection - CD 2
DYEAR=2017
DGENRE=Country
TTITLE0=My Baby's Gone
TTITLE1=Knoxville Girl
TTITLE2=Don't Laugh
TTITLE3=Plenty Of Everything But You
TTITLE4=Wait A Little Longer, Please Jesus
TTITLE5=Don't Let Your Sweet Love Die
TTITLE6=Tennessee Waltz
TTITLE7=Are You Teasing Me?
TTITLE8=Making Believe
TTITLE9=Take Me Back Into Your Heart
TTITLE10=The Family Who Prays (Never Shall Part)
TTITLE11=Born Again
TTITLE12=If We Forget God
TTITLE13=Are You Wasting My Time?
TTITLE14=If I Could Only Win Your Love
TTITLE15=Red Hen Hop
TTITLE16=Blue
TTITLE17=Blue From Now On
TTITLE18=She Didn't Even Know I Was Gone
TTITLE19=While You're Cheating On Me
EXTD=YEAR: 2017
EXTT0=
EXTT1=
EXTT2=
EXTT3=
EXTT4=
EXTT5=
EXTT6=
EXTT7=
EXTT8=
EXTT9=
EXTT10=
EXTT11=
EXTT12=
EXTT13=
EXTT14=
EXTT15=
EXTT16=
EXTT17=
EXTT18=
EXTT19=
PLAYORDER=
